<?xml version="1.0" encoding="utf-8"?>
<svg version="1.1" xmlns:xlink="http://www.w3.org/1999/xlink" width="40px" height="40px" xmlns="http://www.w3.org/2000/svg">
  <g transform="matrix(1 0 0 1 -14 -450 )">
    <path d="M 34 450  C 45.2 450  54 458.8  54 470  C 54 481.2  45.2 490  34 490  C 22.8 490  14 481.2  14 470  C 14 458.8  22.8 450  34 450  Z " fill-rule="nonzero" fill="#ffffff" stroke="none" />
    <path d="M 34 450.5  C 44.92 450.5  53.5 459.08  53.5 470  C 53.5 480.92  44.92 489.5  34 489.5  C 23.08 489.5  14.5 480.92  14.5 470  C 14.5 459.08  23.08 450.5  34 450.5  Z " stroke-width="1" stroke="#797979" fill="none" />
  </g>
</svg>